<svg width="90" height="90" viewBox="0 0 90 90" fill="none" xmlns="http://www.w3.org/2000/svg">
<g clip-path="url(#clip0_2626_1144)">
<rect width="90" height="90" transform="matrix(-1 0 0 1 90 0)" fill="#F3F3F3"/>
<path d="M67.7028 78.2962C67.7032 80.9833 56.8013 78.2609 56.5561 79.0312L49.91 79.4405L44.6192 74.1848L44.0745 71.7169L43.7312 70.115L40.7485 65.0499L37.11 63.2693C36.3875 62.3533 34.2302 59.8786 31.3814 57.3084C28.5325 54.7383 26.9429 49.9927 26.5043 47.9413L24.2592 45.2318L17.0986 33.7357L18.4534 29.0908L24.0276 23.1299C24.0276 23.1299 29.2912 17.6335 29.5621 17.4787C29.7789 17.3548 37.0589 16.1887 40.6719 15.6211L52.7869 21.5434L58.5543 28.046C60.7219 27.0783 62.0379 30.0588 62.1927 34.7424C62.3166 38.4893 60.2364 40.7021 59.1809 41.3402L60.7558 49.7392L67.1604 61.1821C71.1355 61.4761 79.2548 68.709 76.3989 71.1448C72.8292 74.1896 67.7023 74.9374 67.7028 78.2962Z" fill="white"/>
<path opacity="0.3" d="M43.5 69.5011C42.7425 67.1499 40.4503 66.3034 40.766 65.19L47.3466 66.2565L50.8709 65.19L55.8084 58.9089L57.2286 54.3158C57.6504 52.9516 57.8445 51.5274 57.8033 50.1001L57.647 44.6914L59.4689 52.9168C59.529 53.1882 59.5319 53.4691 59.4774 53.7416L57.649 62.8836C57.5182 63.5374 57.2261 64.1481 56.7993 64.6602L47.3466 76.0011L45 73.5011L43.5 69.5011Z" fill="black"/>
<path d="M59.1562 41.625L61.25 51.125L67.012 61.1052L72.1653 63.6501" stroke="black" stroke-width="1.5" stroke-linecap="round" stroke-linejoin="round"/>
<path d="M40.8066 65.0312L44.5894 71.202" stroke="black" stroke-width="1.5" stroke-linecap="round" stroke-linejoin="round"/>
<path d="M87.8076 62.9834C82.8762 62.9834 68.73 60.7685 66.5 60C72 63.6666 78.2787 73.031 63.0787 77.431C47.8787 81.831 44.0001 74.0003 43.5002 70.0005C35.5175 79.5798 26.9725 85.0103 23.8573 88.582C20.7421 92.1537 22.2331 106.763 21.7326 112.817L92.48 106.179L105.768 63.9612C101.238 62.674 94.0049 62.9834 87.8076 62.9834Z" fill="black" stroke="black" stroke-width="1.5" stroke-linecap="round" stroke-linejoin="round"/>
<path d="M45.134 43.5897C45.5091 42.6159 47.0288 42.1549 48.5284 42.5601C50.0279 42.9653 50.9394 44.0832 50.5643 45.057C50.1892 46.0309 48.9675 47.0639 47.4679 46.6587C45.9684 46.2535 44.7589 44.5635 45.134 43.5897Z" fill="#FED1D0"/>
<path d="M53.7146 46.6968C55.6881 45.9074 56.3595 41.3075 55.2525 38.0443L56.4792 36.9375L57.6165 41.4558C57.8037 44.3201 58.1588 50.3068 57.8739 51.9185C57.5177 53.9331 56.2432 58.0445 54.2991 61.7859C52.3551 65.5273 48.0097 66.3907 46.1229 66.3907C44.236 66.3907 42.4971 65.2806 39.9069 64.4583C37.8348 63.8005 35.864 62.0189 35.1377 61.2103C35.6968 60.7498 36.5493 60.854 36.9056 60.9636L36.1443 59.7067C35.5319 58.6954 35.5705 57.4187 36.2429 56.4462L38.5675 53.0847L40.1536 53.4397L41.1404 51.9185L46.7391 49.7739C47.5466 49.4646 48.4482 49.5187 49.2129 49.9224L51.8323 51.3053C51.6815 50.2501 51.7412 47.4862 53.7146 46.6968Z" fill="#EBEBEB"/>
<path d="M28.2341 52.2251C28.5726 51.3459 29.9443 50.9299 31.298 51.296C32.6517 51.6622 33.4747 52.6718 33.1363 53.5511C32.7979 54.4303 31.6952 55.3629 30.3415 54.9967C28.9878 54.6306 27.8957 53.1044 28.2341 52.2251Z" fill="#FED1D0"/>
<path d="M18.1093 38.3466C19.1785 41.1146 22.2234 44.2695 23.6122 45.5009C22.8786 43.2733 21.2226 37.8117 20.4679 33.7865C19.7131 29.7613 20.7823 28.0736 21.4113 27.7329C22.1449 28.257 26.9932 27.3468 27.9777 26.7058C29.3078 25.8398 38.2355 19.2422 40.9872 19.0063C43.1885 18.8176 43.9484 19.8187 44.0533 20.3428L46.1759 23.0158L47.6697 22.3864L48.0628 26.1606C48.1938 27.0778 48.7232 29.1322 49.7924 30.0121C50.8616 30.892 53.2778 34.5722 54.3522 36.3023L55.3358 39.3144C55.4882 39.7811 55.9859 40.0402 56.4556 39.8972C56.9694 39.7409 57.2321 39.1749 57.0276 38.6783C56.0018 36.186 54.1837 31.1683 56.2962 30.0121C57.4459 29.3829 57.4183 29.3053 57.4183 29.3053L58.2831 27.7329L57.4183 19.7139L55.0598 16.4114V14.2106C53.739 12.1351 50.9978 10.7773 49.7924 10.3579L48.4559 8.15605L46.1759 9.33632C44.0533 8.46038 44.0533 6.43659 44.0533 4.70934C42.1468 5.68178 41.4195 6.4091 38.8525 7.4359L39.1348 4.27734C36.3309 5.09616 29.6979 8.62735 26.9932 12.0869L25.6567 10.3579C22.2604 12.6849 21.4113 15.3632 21.4113 16.4114C20.4679 15.9083 19.4982 15.0492 19.1314 14.6826C17.6243 16.4114 16.7727 17.0856 15.8294 22.3864C15.2521 25.6306 16.1438 27.6534 16.7727 28.2822L14.6504 30.6092L16.7727 31.2384C16.7727 32.6536 17.04 35.5787 18.1093 38.3466Z" fill="#CCCCCC"/>
<path d="M49.1986 40.3314C49.1986 43.4637 46.6986 45.7922 43.5664 45.7922C40.4341 45.7922 37.5576 42.7902 37.5576 40.3314C37.5576 37.5349 41.8714 34.8555 44.7988 34.8555C47.931 34.8555 49.1986 37.1992 49.1986 40.3314Z" stroke="black" stroke-width="1.5" stroke-linecap="round" stroke-linejoin="round"/>
<path d="M35.138 47.4084C35.138 50.4595 32.6712 52.7277 29.5805 52.7277C27.4935 52.7277 23.4823 50.021 23.4823 47.6455C23.4823 45.2699 27.9081 42.0742 30.7966 42.0742C33.8872 42.0742 35.138 44.3573 35.138 47.4084Z" stroke="black" stroke-width="1.5" stroke-linecap="round" stroke-linejoin="round"/>
<path d="M33.0107 42.5861C33.8519 41.4891 35.5392 40.2547 37.2414 40.4601" stroke="black" stroke-width="1.5" stroke-linecap="round" stroke-linejoin="round"/>
<path d="M46.2451 35.0001L53.917 30.51C54.4717 30.3457 55.7908 30.333 56.9 30.2344" stroke="black" stroke-width="1.5" stroke-linecap="round" stroke-linejoin="round"/>
<path d="M57.2148 31.251C57.2146 30.2342 57.6612 28.8398 59.2386 28.2513C61.5496 27.3892 63.028 32.6923 61.7174 36.847C60.4541 40.8515 58.7149 41.6026 58.0165 41.5717" stroke="black" stroke-width="1.5" stroke-linecap="round" stroke-linejoin="round"/>
<path d="M55.8278 57.9831C55.5567 58.8642 55.1134 59.685 54.4336 60.9519C53.17 63.3068 50.6756 66.2901 46.9997 66.2901C44.8138 66.2901 42.4556 65.6692 41.15 65.0164C39.5418 64.2123 37.5195 63.9935 35.6134 61.8202C33.4185 59.3174 31.4491 57.5709 29.669 55.1589C28.2448 53.2293 27.0066 49.2001 26.5277 48.1662L25.7783 47.2676" stroke="black" stroke-width="1.5" stroke-linecap="round" stroke-linejoin="round"/>
<path d="M34.9697 45.5684C35.4865 47.407 35.9258 50.5111 37.1215 52.0836C38.3172 53.6561 41.4427 51.6369 42.5914 50.6221" stroke="black" stroke-width="1.5" stroke-linecap="round" stroke-linejoin="round"/>
<path opacity="0.2" d="M42.1328 54.6435C40.7376 55.4458 39.1209 56.4981 38.0377 57.2267C37.6922 57.4591 37.7773 57.9688 38.1844 58.0564C39.2651 58.2887 40.5663 58.4596 41.2091 58.4167C42.0706 58.3593 44.5404 57.268 45.8615 56.1192C46.6808 55.4068 48.085 53.6234 49.0584 52.2246C49.3197 51.8489 48.9763 51.4114 48.5463 51.568C48.1572 51.7097 47.6697 51.8904 47.0719 52.1166C45.3718 52.7599 43.0708 54.0693 42.1328 54.6435Z" fill="black"/>
<path d="M24.327 45.3958C23.7142 44.3995 22.2702 41.7867 21.3973 39.3059C20.5245 36.8252 20.4594 32.4524 20.536 30.5762C18.4851 29.8841 14.7084 27.2 16.0084 22" stroke="black" stroke-width="1.5" stroke-linecap="round" stroke-linejoin="round"/>
<path d="M34.8234 21.0541C35.0526 19.9638 35.9278 17.3181 39.5089 15.9411C43.9853 14.2199 45.7068 12.3262 46.2233 8.71094" stroke="black" stroke-width="1.5" stroke-linecap="round" stroke-linejoin="round"/>
<path d="M50.7864 16.6405C48.47 19.8848 44.6279 20.4744 43.3779 20.4328C44.2105 19.9413 45.8756 18.3838 45.8756 16.0859" stroke="black" stroke-width="1.5" stroke-linecap="round" stroke-linejoin="round"/>
<path d="M45.7793 22.3747C46.9876 22.1247 51.7308 21.4834 53.7513 19.4121" stroke="black" stroke-width="1.5" stroke-linecap="round" stroke-linejoin="round"/>
<path d="M29.6336 23.5C28.9669 22 27.8336 18.375 28.6336 15.875C29.4336 13.375 31.967 11.1667 33.1338 10.375" stroke="black" stroke-width="1.5" stroke-linecap="round" stroke-linejoin="round"/>
<path d="M27.4336 25.4184C26.8086 24.0017 25.5586 20.6434 25.5586 18.5434C25.5586 16.4434 25.5586 15.9877 26.2274 14.1934" stroke="black" stroke-width="1.5" stroke-linecap="round" stroke-linejoin="round"/>
<path d="M24.6338 25.6255C23.3004 25.0838 20.8139 22.8703 22.9139 17.5703" stroke="black" stroke-width="1.5" stroke-linecap="round" stroke-linejoin="round"/>
<path d="M15.2391 29.3281L14.0088 30.5007L16.8839 31.3742C16.7173 32.1242 16.4839 33.3007 16.8839 35.5007C17.2839 37.7007 19.7173 41.1674 20.8839 42.6257L23.9847 45.4514" stroke="black" stroke-width="1.5" stroke-linecap="round" stroke-linejoin="round"/>
<path d="M22.3835 28.375C20.2168 27.7083 16.5335 24.575 19.1335 17.375" stroke="black" stroke-width="1.5" stroke-linecap="round" stroke-linejoin="round"/>
<path d="M48.5645 10.0625C50.1527 10.5003 53.6578 11.9674 54.9727 14.334L55.2181 17.1538M53.4448 15.9491C53.9362 16.2395 54.5815 16.6476 55.2181 17.1538M58.4714 28.3632C58.1427 26.5556 57.4378 22.4191 57.4378 19.9214C57.0486 18.8314 56.1426 17.8891 55.2181 17.1538" stroke="black" stroke-width="1.5" stroke-linecap="round" stroke-linejoin="round"/>
<path d="M47.917 24.6361C49.198 24.2327 50.7634 23.668 52.6587 24.6361" stroke="black" stroke-width="1.5" stroke-linecap="round" stroke-linejoin="round"/>
<ellipse cx="30.2932" cy="45.793" rx="1.32465" ry="1.77018" transform="rotate(-24.9881 30.2932 45.793)" fill="black"/>
<ellipse cx="43.2639" cy="39.3476" rx="1.32465" ry="1.77018" transform="rotate(-24.9881 43.2639 39.3476)" fill="black"/>
<path d="M31.5092 22.3747C31.3842 21.2497 31.7342 18.3247 34.1342 15.6247C36.024 13.4987 37.4474 12.0226 38.2422 9.78469M34.1342 7.01426C35.653 5.99797 37.9835 5.09172 38.9589 4.76562C38.9589 5.72507 38.9081 6.57275 38.8094 7.33495C41.7618 6.49467 42.4035 5.93848 43.7098 4.96785C44.4384 8.5183 41.7367 11.455 40.2948 12.4796" stroke="black" stroke-width="1.5" stroke-linecap="round" stroke-linejoin="round"/>
<path d="M48.2568 27.2656C48.3089 27.9635 48.4996 29.0808 49.4996 30.2808C50.4996 31.4808 53.9395 35.2459 55.1228 39.4067" stroke="black" stroke-width="1.5" stroke-linecap="round" stroke-linejoin="round"/>
<path d="M37.3119 39.7923C37.2722 39.1556 37.3049 37.9369 38.2596 36.8869C39.7724 35.9482 41.6357 34.9975 43.9277 34.627" stroke="black" stroke-width="1.5" stroke-linecap="round" stroke-linejoin="round"/>
<path d="M32.5769 42.106C31.7414 41.7847 30.0061 41.5062 29.0566 41.3887C28.1665 41.9104 26.2157 42.9183 25.3318 44.1705" stroke="black" stroke-width="1.5" stroke-linecap="round" stroke-linejoin="round"/>
<path d="M58.3223 33.9688L58.6276 36.6027" stroke="black" stroke-width="1.5" stroke-linecap="round" stroke-linejoin="round"/>
<path d="M57.4443 35.5723L59.3145 34.9609" stroke="black" stroke-width="1.5" stroke-linecap="round" stroke-linejoin="round"/>
<path d="M25.542 10.416C24.3692 11.2998 21.879 13.6938 21.3008 16.1992" stroke="black" stroke-width="1.5" stroke-linecap="round" stroke-linejoin="round"/>
</g>
<defs>
<clipPath id="clip0_2626_1144">
<rect width="90" height="90" fill="white" transform="matrix(-1 0 0 1 90 0)"/>
</clipPath>
</defs>
</svg>
